<?xml version="1.0" encoding="utf-8"?>
<!-- Generator: Adobe Illustrator 25.0.1, SVG Export Plug-In . SVG Version: 6.00 Build 0)  -->
<svg version="1.1" id="Calque_1" xmlns="http://www.w3.org/2000/svg" xmlns:xlink="http://www.w3.org/1999/xlink" x="0px" y="0px"
	 viewBox="0 0 202 52" style="enable-background:new 0 0 202 52;" xml:space="preserve">
<style type="text/css">
	.st0{fill:#911C1C;}
</style>
<path class="st0" d="M25.9,2.4V8H7.5v11.1h15.1v5.3H7.5v16.3H1.2V2.4H25.9z"/>
<path class="st0" d="M35.8,2.5c0.7,0.7,1.1,1.6,1.1,2.6c0,1-0.4,1.8-1.1,2.5c-0.7,0.7-1.6,1-2.6,1c-1.1,0-1.8-0.4-2.6-1
	C29.9,7,29.5,6,29.5,5.1c0-1,0.4-1.8,1.1-2.6c0.7-0.7,1.6-1,2.6-1C34.2,1.5,35,1.9,35.8,2.5z M36,12.7v28h-5.9v-28H36z"/>
<path class="st0" d="M44.5,38.5c-2.4-1.7-3.6-4-3.6-7h5.8c0.1,1.4,0.8,2.7,2.1,3.6c1.3,0.9,2.9,1.4,4.9,1.4c1.8,0,3.3-0.4,4.5-1
	c1.2-0.7,1.7-1.6,1.7-2.7c0-0.9-0.3-1.6-0.8-2.1c-0.5-0.5-1.2-0.8-2.1-1C56,29.4,54.7,29.2,53,29h-0.1l-0.8-0.1
	c-2.2-0.3-4.2-0.7-5.7-1.2c-1.4-0.5-2.8-1.3-3.6-2.3c-0.9-1-1.3-2.3-1.3-4.2c0-1.7,0.5-3.3,1.4-4.6c0.9-1.3,2.4-2.3,4.1-3.1
	c1.7-0.8,3.7-1,5.9-1c3.6,0,6.4,0.8,8.5,2.3c2.2,1.6,3.4,3.8,3.6,6.6h-5.8c-0.1-1.3-0.8-2.3-2-3.1C56.2,17.5,54.7,17,53,17
	s-3.2,0.4-4.1,1c-1.1,0.7-1.6,1.6-1.6,2.7c0,0.8,0.3,1.4,0.7,1.8c0.5,0.4,1.2,0.7,2,0.9c0.8,0.1,2,0.4,3.6,0.5c0.1,0,0.1,0,0.3,0
	c0.1,0,0.1,0,0.3,0c2.5,0.3,4.5,0.7,6.2,1.2c1.6,0.5,3,1.3,3.9,2.5c1.1,1.2,1.6,2.7,1.6,4.7c0,1.7-0.5,3.3-1.6,4.6
	c-1.1,1.3-2.5,2.3-4.3,3.1c-1.8,0.7-3.8,1-6.2,1C49.9,40.9,46.8,40.2,44.5,38.5z"/>
<path class="st0" d="M76.5,2.4v17.1l-0.9-1.3c0.9-1.7,2.2-3.1,3.8-4.2c1.6-1,3.6-1.6,6-1.6c3.4,0,6.2,1,8.3,3
	c2.1,2.1,3.2,5.3,3.2,9.9v15.4H91V25.6c0-2.6-0.5-4.7-1.7-6.1c-1.2-1.4-2.9-2.1-5-2.1c-1.6,0-2.9,0.4-4.1,1c-1.2,0.8-2,1.8-2.6,3.1
	c-0.7,1.3-0.9,3-0.9,4.8v14.2h-5.9V2.4H76.5z"/>
<path class="st0" d="M150.7,12.7l7.9,21.6l7.6-21.6h6.3L159.8,45c-0.7,1.7-1.3,3-1.8,3.9c-0.5,0.9-1.2,1.6-2.1,2
	c-0.8,0.4-1.8,0.7-3.3,0.7h-6.4v-5.2h4.2c0.8,0,1.4-0.1,1.8-0.3c0.4-0.1,0.8-0.4,1.1-0.8c0.3-0.4,0.5-1,0.9-1.8l1.2-2.7l-11-28.1
	h6.4V12.7z"/>
<path class="st0" d="M180.4,39.1c-2.2-1.2-3.9-2.9-5.1-4.9c-1.2-2.2-1.8-4.7-1.8-7.6c0-2.9,0.5-5.5,1.7-7.6c1.2-2.1,2.8-3.8,4.9-4.9
	c2.1-1.2,4.5-1.8,7.2-1.8c2.8,0,5.1,0.5,7.2,1.6c2.1,1,3.7,2.6,4.9,4.7c1.2,2.1,1.8,4.4,1.8,7c0,0.4,0,0.7,0,1c0,0.4,0,0.8-0.1,1.2
	h-21.3c0,0.1,0,0.1,0,0.1v0.1c0.1,1.6,0.4,3,1.1,4.2c0.7,1.2,1.6,2.1,2.8,2.7c1.2,0.7,2.5,1,4.1,1c1.8,0,3.4-0.4,4.6-1.3
	c1.3-0.9,2.1-2.1,2.5-3.6h6c-0.4,1.8-1.1,3.5-2.2,4.9c-1.2,1.4-2.6,2.6-4.3,3.5c-1.8,0.8-3.8,1.3-6,1.3
	C185.3,40.9,182.7,40.3,180.4,39.1z M184,17.9c-1.1,0.5-2,1.3-2.6,2.3c-0.7,1-1.2,2.1-1.3,3.4h15.1c-0.3-2.1-1.1-3.8-2.4-4.8
	c-1.3-1.2-3.2-1.7-5.3-1.7C186.3,17,185.2,17.4,184,17.9z"/>
<path class="st0" d="M136.6,9.4h-6.2l-3.6-3.9h-11.7l-3.5,3.9h-6.2c-2.1,0-3.9,1.7-3.9,3.9v23.2c0,2.1,1.7,3.9,3.9,3.9h31.2
	c2.1,0,3.9-1.7,3.9-3.9V13.2C140.6,11.1,138.9,9.4,136.6,9.4z M136.6,36.4h-31V13.2h7.9l3.6-3.9h8.3l3.4,3.9h7.9V36.4z M121.1,15.2
	c-5.4,0-9.7,4.3-9.7,9.6c0,5.3,4.3,9.6,9.7,9.6s9.7-4.3,9.7-9.6C130.9,19.5,126.5,15.2,121.1,15.2z M121.1,30.7
	c-3.2,0-5.8-2.6-5.8-5.7s2.6-5.7,5.8-5.7c3.2,0,5.8,2.6,5.8,5.7S124.3,30.7,121.1,30.7z"/>
</svg>
