<svg width="15" height="15" viewBox="0 0 50 50" fill="none" xmlns="http://www.w3.org/2000/svg">
<path d="M34.4773 25L48.6918 10.7855C50.4361 9.04119 50.4361 6.21307 48.6918 4.46733L45.5327 1.30824C43.7884 -0.436079 40.9602 -0.436079 39.2145 1.30824L25 15.5227L10.7855 1.30824C9.04119 -0.436079 6.21307 -0.436079 4.46733 1.30824L1.30824 4.46733C-0.436079 6.21165 -0.436079 9.03977 1.30824 10.7855L15.5227 25L1.30824 39.2145C-0.436079 40.9588 -0.436079 43.7869 1.30824 45.5327L4.46733 48.6918C6.21165 50.4361 9.04119 50.4361 10.7855 48.6918L25 34.4773L39.2145 48.6918C40.9588 50.4361 43.7884 50.4361 45.5327 48.6918L48.6918 45.5327C50.4361 43.7884 50.4361 40.9602 48.6918 39.2145L34.4773 25Z" fill="#901C1C"/>
</svg>

